<svg xmlns="http://www.w3.org/2000/svg" version="1.1" viewBox="-5.0 -10.0 110.0 135.0">
 <path d="m40.512 47.039c4.1562 0 8.0195-1.2617 11.234-3.4219 3.0469 2.0273 6.5898 3.1016 10.266 3.1016 10.23 0 18.555-8.3242 18.555-18.555 0-10.23-8.3242-18.555-18.555-18.555-2.8789 0-5.7227 0.67578-8.2812 1.9531-3.5469-3.0781-8.1641-4.957-13.219-4.957-11.145 0-20.215 9.0664-20.215 20.215 0 11.152 9.0664 20.219 20.215 20.219zm37.301-18.867c0 8.7109-7.0898 15.801-15.801 15.801-2.8281 0-5.5625-0.74609-7.9766-2.1641 4.0977-3.7031 6.6914-9.0352 6.6914-14.98 0-5.0352-1.8633-9.6406-4.9219-13.184 1.9531-0.83594 4.0664-1.2734 6.2109-1.2734 8.707 0 15.797 7.0859 15.797 15.801zm-37.301-18.559c9.4922 0 17.215 7.7227 17.215 17.215s-7.7227 17.215-17.215 17.215c-9.4922 0-17.215-7.7227-17.215-17.215s7.7227-17.215 17.215-17.215z"/>
 <path d="m83.91 54.145c-0.039062-0.019531-0.078125-0.039062-0.11719-0.058593l-10.953-4.8359c-0.58984-0.25781-1.2734-0.078125-1.6602 0.4375-2.2148 2.9688-4.5703 4.7656-7.0039 5.3477l-6.6641-2.9453c-0.16797-0.12109-0.35938-0.21094-0.57031-0.25391l-4.6289-2.043c-0.64062-0.28125-1.3906-0.085938-1.8086 0.47656-2.9961 4.0156-6.2148 6.0547-9.5625 6.0586h-0.011718c-5.7852 0-10.363-6-10.406-6.0586-0.41797-0.55859-1.168-0.75781-1.8086-0.47656l-11.492 5.0742c-0.94531 0.33203-9.1562 3.4219-8.6328 11.152v25.863c0 0.82813 0.67188 1.5 1.5 1.5h60.844c0.82812 0 1.5-0.67187 1.5-1.5v-2.6211h17.504c0.76172 0 1.3789-0.61719 1.3789-1.3789l-0.007812-23.734c0.003906-5.7891-7.0977-9.8359-7.3984-10.004zm-27.27 15.898c2.3008 0 4.1719 1.8711 4.1719 4.1719 0 2.3008-1.8711 4.1719-4.1719 4.1719s-4.1719-1.8711-4.1719-4.1719c0-2.3008 1.8711-4.1719 4.1719-4.1719zm12.793 20.344h-57.844v-24.418c0-0.035156 0-0.074219-0.003906-0.10938-0.41797-5.7266 6.3672-8.0742 6.6523-8.168 0.046875-0.015625 0.089844-0.03125 0.13672-0.050781l5.2773-2.332v12.23h-0.53516c-1.5859 0-3.0781 0.61719-4.1992 1.7383-1.1211 1.1211-1.7383 2.6133-1.7383 4.1992v4.0664c0 0.82422 0.66406 1.4922 1.4844 1.5l2.3906 0.023437h0.015624c0.82031 0 1.4922-0.66016 1.5-1.4844 0.007813-0.82812-0.65625-1.5078-1.4844-1.5156l-0.90234-0.007812v-2.582c0-0.78516 0.30469-1.5234 0.85938-2.0781 0.55469-0.55469 1.293-0.85938 2.0781-0.85938h2.0312 0.003906 0.003906 2.0273c1.6211 0 2.9414 1.3203 2.9375 2.9375v2.582l-1.3828 0.011718c-0.82813 0.007813-1.4922 0.68359-1.4883 1.5117 0.007813 0.82422 0.67578 1.4883 1.5 1.4883h0.011719l2.8672-0.023437c0.82422-0.007813 1.4883-0.67578 1.4883-1.5v-4.0664c0-3.2734-2.6602-5.9375-5.9375-5.9414h-0.53125v-13.559l2.2344-0.98828c1.7422 1.9688 6.2578 6.332 12.039 6.332 4.0547 0 7.832-2.125 11.242-6.3164l2.9727 1.3125v12.883c-3.2344 0.69141-5.6719 3.5703-5.6719 7.0117 0 3.9531 3.2188 7.1719 7.1719 7.1719s7.1719-3.2188 7.1719-7.1719c0-3.4375-2.4336-6.3203-5.6719-7.0117v-11.555l4.8203 2.1289c1.8555 1.0664 6.4727 4.5156 6.4727 8.25zm19.125-3.8789h-16.125v-20.484c0-3.9844-3.082-7.2031-5.4375-9.0898 2.0078-0.94922 3.9219-2.5312 5.7148-4.7344l9.9062 4.375c1.707 0.97656 5.9414 4.1445 5.9414 7.5703l-0.003906 22.363z"/>
<text x="0.0" y="117.5" font-size="5.0" font-weight="bold" font-family="Arbeit Regular, Helvetica, Arial-Unicode, Arial, Sans-serif" fill="#000000">Created by SANB</text><text x="0.0" y="122.5" font-size="5.0" font-weight="bold" font-family="Arbeit Regular, Helvetica, Arial-Unicode, Arial, Sans-serif" fill="#000000">from Noun Project</text></svg>