<svg xmlns="http://www.w3.org/2000/svg" version="1.1" viewBox="-5.0 -10.0 110.0 135.0">
 <path d="m94.941 46.168c-1.0391-3.2109-2.793-3.5078-3.7422-3.3906-2.1289 0.25-3.7422 2.7969-3.9336 4.4492l-2.7539 10.348c-0.19531-0.10938-0.38281-0.1875-0.55859-0.23828-1.7188-0.50781-3.668 0.73047-5.0039 1.8633l-4.4805 3.8008c-0.43359 0.36719-0.84375 0.60938-1.3711 0.80859-3.5898 1.3594-6.4844 2.9609-8.9688 6.3672-2.2109 3.0352-2.7891 6.3633-3.4023 9.8906-0.11328 0.65234-0.23437 1.3164-0.36328 1.9844-0.5625 0.035157-1.1133 0.18359-1.6172 0.47266-0.85156 0.49219-1.4609 1.2852-1.7148 2.2305l-0.72266 2.6992c-0.52344 1.9609 0.64062 3.9805 2.6016 4.5078l10.855 2.9102c0.31641 0.085937 0.63672 0.125 0.95312 0.125 1.625 0 3.1133-1.0859 3.5547-2.7266l0.72266-2.6992c0.30859-1.1523 0.019531-2.3164-0.65625-3.1914l1.9102-3.7188c0.43359-0.84375 0.92969-1.4648 1.6602-2.0742l12.414-10.379c1.8789-1.5703 2.9414-3.6055 3.1523-6.0469l1.5195-17.559c0.011718-0.14453-0.003906-0.29297-0.050782-0.43359zm-22.066 42.836-0.72266 2.6992c-0.10156 0.37891-0.34766 0.69922-0.69141 0.89844-0.34375 0.19922-0.74219 0.25391-1.125 0.15234l-10.855-2.9102c-0.78906-0.21094-1.2617-1.0273-1.0508-1.8164l0.72266-2.6992c0.10156-0.37891 0.34766-0.69922 0.69141-0.89844 0.23047-0.13281 0.48438-0.20313 0.74219-0.20313 0.12891 0 0.25391 0.015626 0.38281 0.050782l10.859 2.9102c0.78906 0.21094 1.2617 1.0273 1.0508 1.8164zm18.41-25.031c-0.16016 1.8633-0.9375 3.3516-2.3711 4.5508l-12.414 10.379c-0.95312 0.79688-1.6328 1.6484-2.2031 2.7578l-1.7734 3.457c-0.042969-0.015626-0.082032-0.035157-0.12891-0.050782l-9.8672-2.6445c0.12891-0.66797 0.24609-1.332 0.35938-1.9805 0.56641-3.2656 1.1055-6.3555 3.0156-8.9766 2.168-2.9766 4.6562-4.3516 7.9688-5.6094 0.76562-0.28906 1.3867-0.65625 2.0156-1.1875l4.4805-3.8008c1.4922-1.2656 2.5234-1.5625 2.957-1.4336 0.22266 0.066406 0.38281 0.3125 0.49609 0.57422-0.79687 2.125-2.9062 4.0117-4.9688 5.8398-0.71484 0.63281-1.4531 1.2852-2.1328 1.9492-0.43359 0.42188-0.44531 1.1172-0.023438 1.5508 0.21484 0.22266 0.5 0.33203 0.78906 0.33203 0.27734 0 0.55078-0.10156 0.76562-0.30859 0.64453-0.62891 1.3672-1.2656 2.0586-1.8828 2.3867-2.1133 4.8555-4.3008 5.7305-7.1445 0.003907-0.007812 0.003907-0.019531 0.003907-0.027344 0-0.003906 0.003906-0.007812 0.007812-0.015625l3.3555-12.605c0.015625-0.0625 0.027344-0.12891 0.035156-0.19531 0.070313-0.90234 1.1836-2.4531 2.0156-2.5508 0.44141-0.050781 0.9375 0.57031 1.3281 1.6836l-1.5 17.332zm-17.945-3.293v-9.5898c0-2.9609-1.5938-5.5469-3.9648-6.9727 3.2188-4.2266 4.9805-9.4102 4.9805-14.754 0-13.43-10.926-24.355-24.355-24.355s-24.355 10.926-24.355 24.355c0 5.3438 1.7617 10.527 4.9805 14.754-2.3711 1.4219-3.9648 4.0117-3.9648 6.9727v9.5898c0 0.60547 0.49219 1.0977 1.0977 1.0977h18.121c0.60547 0 1.0977-0.49219 1.0977-1.0977v-2.1094h6.0469v2.1094c0 0.60547 0.49219 1.0977 1.0977 1.0977h18.121c0.60547 0 1.0977-0.49219 1.0977-1.0977zm-6.0586-17.445c-0.66406-0.17578-1.3594-0.27734-2.0781-0.27734h-3.9805c0.070313-0.34766 0.11328-0.69141 0.125-1.0312 0.64453 0.24609 1.3398 0.38672 2.0664 0.38672 3.207 0 5.8125-2.6094 5.8125-5.8125 0-3.207-2.6094-5.8125-5.8125-5.8125-3.207 0-5.8125 2.6094-5.8125 5.8125 0 0.26172 0.023438 0.51953 0.058594 0.77344-0.58594-0.28516-1.2461-0.57031-2.0117-0.84375-0.11719-0.10547-0.22266-0.21094-0.33203-0.31641 0.46484-0.83594 0.73438-1.7969 0.73438-2.8203 0-1.0195-0.26562-1.9766-0.72656-2.8086 2.6289-0.67969 6.6172-0.81641 10.203-0.9375 2.4766-0.082031 4.8359-0.16406 6.6328-0.41797 0 0.082032 0.007813 0.16016 0.007813 0.24219 0 5.0508-1.7305 9.9453-4.8828 13.867zm-7.4844-6.7383c0-1.9961 1.625-3.6211 3.6172-3.6211 1.9961 0 3.6211 1.625 3.6211 3.6211s-1.625 3.6172-3.6211 3.6172c-1.9961 0-3.6172-1.625-3.6172-3.6172zm-5.9414-3.207c0 1.9961-1.625 3.6211-3.6172 3.6211-1.9961 0-3.6211-1.625-3.6211-3.6211 0-1.9961 1.625-3.6172 3.6211-3.6172 1.9961 0 3.6172 1.625 3.6172 3.6172zm16.797-11.957c-2.0234 1.2539-4.3594 1.8203-6.0234 1.4141-0.89062-0.21875-1.5078-0.6875-1.8789-1.4336-0.15234-0.30469-0.4375-0.52344-0.77344-0.58594-0.33594-0.0625-0.67969 0.03125-0.9375 0.25781-2.4102 2.1406-4.6602 1.3789-5.5156 0.94922-1.1211-0.55859-1.918-1.5664-1.8555-2.3438 0.054687-0.69141 0.85547-1.082 1.5703-1.3086 2.4492-0.91016 2.9414-2.6562 3.3359-4.0586 0.46094-1.6367 0.78125-2.7344 4.2461-2.918 3.5 2.4922 6.2461 5.9688 7.832 10.027zm-34.09-9.5703c-0.76172 1.5039-0.87109 2.6172-0.38281 3.4805 0.78906 1.3984 2.7109 1.3125 3.7383 1.1836 0.21875 0.16406 0.40625 0.36328 0.40234 0.56641-0.007812 0.46875-0.63672 2.3047-8.3398 6.3125-0.058594 0.03125-0.11719 0.066406-0.16797 0.10937-1.3047 1.0195-2.0039 1.1328-2.2109 1.0391-0.19141-0.085937-0.52344-0.61719-0.64453-2.0195 1.4141-4.2812 4.0977-7.9922 7.6055-10.676zm-8.7188 17.602c0-1.125 0.085938-2.2305 0.24609-3.3086 0.1875 0.16016 0.38281 0.30078 0.60938 0.40234 0.32812 0.14844 0.67578 0.22266 1.0508 0.22266 0.95312 0 2.0547-0.48828 3.332-1.4727 6.4805-3.3789 9.3906-5.9023 9.4297-8.1719 0.015625-0.75781-0.28516-1.8438-1.8047-2.707-0.21484-0.12109-0.46484-0.16797-0.70703-0.13281-1.5156 0.23047-1.8945-0.03125-1.9062-0.03125-0.011719-0.027343-0.30859-1.0625 3.0039-5.0898 2.7266-1.2031 5.7383-1.875 8.9062-1.875 3.5742 0 6.9531 0.85547 9.9492 2.3672-2.332 0.75391-2.9961 2.2969-3.4922 4.0586-0.35156 1.25-0.58594 2.0742-1.9297 2.5742-2.4922 0.77344-2.9805 2.3398-3.0508 3.207-0.13672 1.6992 1.0938 3.5 3.0625 4.4844 2.2656 1.1289 4.7969 0.92188 6.9766-0.51953 0.65625 0.73047 1.5352 1.2422 2.5859 1.5 0.52344 0.12891 1.0859 0.19141 1.6719 0.19141 1.7734 0 3.7617-0.57422 5.582-1.6055 0.3125 1.1211 0.53906 2.2812 0.66797 3.4648-1.668 0.25391-4.0586 0.33984-6.5742 0.42188-4.3477 0.14453-8.8281 0.29688-11.711 1.3164-0.97656-0.74219-2.1914-1.1875-3.5078-1.1875-3.207 0-5.8125 2.6094-5.8125 5.8125 0 3.207 2.6094 5.8125 5.8125 5.8125 1.3906 0 2.668-0.49219 3.668-1.3086 0.14062 0.13281 0.27734 0.26563 0.42578 0.40234 0.10938 0.097656 0.23438 0.17578 0.375 0.22266 4.7852 1.6875 4.8164 2.8984 4.1719 4.8711-0.042969 0.011719-0.089844 0.019532-0.13281 0.035156-1.5078-2.2227-4-3.5742-6.7188-3.5742h-4.043c-2.7227 0-5.2109 1.3516-6.7188 3.5742-0.76562-0.23828-1.5742-0.36719-2.418-0.36719h-4.043c-0.71875 0-1.4141 0.10156-2.0781 0.27734-3.1484-3.9219-4.8789-8.8164-4.8789-13.867zm16.941 30.219h-15.926v-8.4922c0-3.2773 2.6641-5.9414 5.9414-5.9414h4.043c3.2773 0 5.9414 2.6641 5.9414 5.9414zm2.1953-3.207v-5.2852c0-2.8516-1.4766-5.3594-3.6992-6.8125 1.1172-1.457 2.832-2.3398 4.7031-2.3398h4.043c1.8711 0 3.5859 0.87891 4.7031 2.3398-2.2266 1.4531-3.6992 3.9609-3.6992 6.8125v5.2852zm24.168 3.207h-15.926v-8.4922c0-3.2773 2.6641-5.9414 5.9414-5.9414h4.043c3.2773 0 5.9414 2.6641 5.9414 5.9414zm-28.277-23.086c0-3.207-2.6094-5.8125-5.8125-5.8125-3.207 0-5.8125 2.6094-5.8125 5.8125 0 3.207 2.6094 5.8125 5.8125 5.8125 3.207 0 5.8125-2.6094 5.8125-5.8125zm-9.4336 0c0-1.9961 1.625-3.6211 3.6172-3.6211 1.9961 0 3.6211 1.625 3.6211 3.6211s-1.625 3.6172-3.6211 3.6172c-1.9961 0-3.6172-1.625-3.6172-3.6172zm9.5391 48.262c-0.25391-0.94531-0.86328-1.7383-1.7148-2.2305-0.50391-0.28906-1.0547-0.4375-1.6172-0.47266-0.12891-0.66797-0.25-1.3359-0.36328-1.9844-0.61328-3.5273-1.1914-6.8594-3.4023-9.8906-2.4805-3.4062-5.3789-5.0078-8.9688-6.3672-0.52734-0.19922-0.9375-0.44141-1.3711-0.80859l-4.4805-3.8008c-1.3359-1.1328-3.2891-2.375-5.0039-1.8633-0.17578 0.050781-0.36719 0.12891-0.55859 0.23828l-2.7539-10.348c-0.19141-1.6523-1.8047-4.1953-3.9336-4.4453-0.95312-0.11328-2.707 0.17969-3.7422 3.3906-0.046875 0.14062-0.0625 0.28516-0.050781 0.43359l1.5195 17.559c0.21094 2.4414 1.2695 4.4766 3.1523 6.0469l12.414 10.379c0.73047 0.60938 1.2266 1.2305 1.6602 2.0742l1.9102 3.7188c-0.097656 0.12891-0.20312 0.25781-0.28516 0.39844-0.49219 0.85156-0.625 1.8438-0.37109 2.7891l0.72266 2.6992c0.25391 0.94531 0.86328 1.7383 1.7148 2.2305 0.57031 0.32812 1.1992 0.49609 1.8359 0.49609 0.31641 0 0.63672-0.042969 0.95313-0.125l10.855-2.9102c0.94531-0.25391 1.7383-0.86328 2.2305-1.7148s0.625-1.8438 0.37109-2.7891l-0.72266-2.6992zm-19.469-5.8555-12.414-10.379c-1.4336-1.1992-2.2109-2.6875-2.3711-4.5508l-1.5-17.332c0.39062-1.1094 0.88281-1.7266 1.3281-1.6836 0.83203 0.097657 1.9453 1.6484 2.0156 2.5508 0.003906 0.066407 0.015625 0.13281 0.035156 0.19531l3.3555 12.605c0 0.003906 0.003907 0.007812 0.007813 0.015625 0.003906 0.007812 0.003906 0.019531 0.003906 0.027343 0.87891 2.8438 3.3438 5.0273 5.7305 7.1445 0.69531 0.61719 1.4141 1.2539 2.0586 1.8828 0.21484 0.20703 0.48828 0.30859 0.76563 0.30859 0.28516 0 0.57031-0.10938 0.78906-0.33203 0.42188-0.43359 0.41016-1.1289-0.023438-1.5508-0.68359-0.66406-1.4219-1.3164-2.1328-1.9492-2.0586-1.8242-4.1719-3.7148-4.9688-5.8398 0.11328-0.26562 0.27344-0.50781 0.49609-0.57422 0.42969-0.12891 1.4648 0.16797 2.957 1.4336l4.4805 3.8008c0.625 0.53125 1.2461 0.89844 2.0117 1.1875 3.3125 1.2539 5.8008 2.6289 7.9688 5.6094 1.9102 2.6211 2.4453 5.707 3.0156 8.9766 0.11328 0.64453 0.23047 1.3086 0.35937 1.9766l-9.8672 2.6445c-0.046875 0.011719-0.085937 0.035157-0.12891 0.046876l-1.7734-3.457c-0.57031-1.1055-1.25-1.957-2.2031-2.7578zm17.922 10.246c-0.19922 0.34375-0.51953 0.58984-0.89844 0.69141l-10.855 2.9102c-0.37891 0.10156-0.78125 0.046875-1.125-0.15234-0.34375-0.19922-0.58984-0.51953-0.69141-0.89844l-0.72266-2.6992c-0.10156-0.37891-0.046875-0.78125 0.15234-1.125 0.19922-0.34375 0.51953-0.58984 0.89844-0.69141l10.859-2.9102c0.125-0.035157 0.25391-0.050782 0.38281-0.050782 0.25781 0 0.51172 0.066406 0.74219 0.20312 0.34375 0.19922 0.58984 0.51953 0.69141 0.89844l0.72266 2.6992c0.10156 0.37891 0.046874 0.78125-0.15234 1.125z"/>
<text x="0.0" y="117.5" font-size="5.0" font-weight="bold" font-family="Arbeit Regular, Helvetica, Arial-Unicode, Arial, Sans-serif" fill="#000000">Created by San D</text><text x="0.0" y="122.5" font-size="5.0" font-weight="bold" font-family="Arbeit Regular, Helvetica, Arial-Unicode, Arial, Sans-serif" fill="#000000">from Noun Project</text></svg>