<svg xmlns="http://www.w3.org/2000/svg" version="1.1" viewBox="-5.0 -10.0 110.0 135.0">
 <path d="m53.934 32.633c1.8164-1.8203 2.3633-4.5547 1.375-6.9336-0.98438-2.3789-3.3047-3.9297-5.8789-3.9297-2.5703 0-4.8906 1.5508-5.8789 3.9297-0.98438 2.3789-0.4375 5.1133 1.3789 6.9336-2.6406 1.5781-4.2578 4.4297-4.2617 7.5039v2.4023c0 0.86328 0.69922 1.5625 1.5625 1.5625s1.5664-0.69922 1.5664-1.5625v-2.4023c0-3.1094 2.5234-5.6328 5.6328-5.6328 3.1133 0 5.6367 2.5234 5.6367 5.6328v2.4023c0 0.86328 0.70312 1.5625 1.5664 1.5625 0.86328 0 1.5625-0.69922 1.5625-1.5625v-2.4023c-0.003906-3.0742-1.6211-5.9258-4.2617-7.5039zm-7.7344-4.4922h-0.003907c0.027344-1.7695 1.4648-3.1914 3.2344-3.1914 1.7695 0 3.2109 1.4219 3.2383 3.1914-0.027344 1.7695-1.4688 3.1875-3.2383 3.1875-1.7695 0-3.2109-1.418-3.2344-3.1875z"/>
 <path d="m53.934 65.547c1.8164-1.8203 2.3633-4.5586 1.375-6.9375-0.98438-2.375-3.3047-3.9258-5.8789-3.9258-2.5703 0-4.8906 1.5508-5.8789 3.9258-0.98438 2.3789-0.4375 5.1172 1.3789 6.9375-2.6406 1.5781-4.2578 4.4258-4.2617 7.5039v2.4023c0 0.86328 0.69922 1.5625 1.5625 1.5625s1.5664-0.69922 1.5664-1.5625v-2.4023c0-3.1133 2.5234-5.6367 5.6328-5.6367 3.1133 0 5.6367 2.5234 5.6367 5.6367v2.4023c0 0.86328 0.70312 1.5625 1.5664 1.5625 0.86328 0 1.5625-0.69922 1.5625-1.5625v-2.4023c-0.003906-3.0781-1.6211-5.9258-4.2617-7.5039zm-7.7344-4.4922-0.003907-0.003907c0.027344-1.7695 1.4688-3.1875 3.2344-3.1875 1.7695 0 3.2109 1.418 3.2383 3.1875-0.027344 1.7695-1.4688 3.1914-3.2383 3.1914-1.7656 0-3.207-1.4219-3.2344-3.1914z"/>
 <path d="m72.785 51.242c1.0703-1.293 1.4414-3.0234 1-4.6406-0.44141-1.6172-1.6445-2.918-3.2227-3.4844-1.5781-0.56641-3.332-0.32813-4.7031 0.63672s-2.1836 2.5391-2.1797 4.2148c0.003906 1.1992 0.42969 2.3555 1.2031 3.2734-1.875 1.293-2.9961 3.4258-3 5.707v1.7969-0.003906c0 0.86328 0.69922 1.5664 1.5625 1.5664 0.86328 0 1.5664-0.70312 1.5664-1.5664v-1.793c0-2.1133 1.7109-3.8242 3.8242-3.8242 2.1094 0 3.8203 1.7109 3.8203 3.8242v1.7969-0.003906c0.003906 0.86328 0.70312 1.5586 1.5664 1.5586 0.85938 0 1.5586-0.69531 1.5625-1.5586v-1.793c-0.003906-2.2812-1.125-4.4141-3-5.707zm-5.9805-3.2734c0.015624-1.1094 0.91797-2 2.0312-2 1.1094 0 2.0117 0.89062 2.0273 2-0.015625 1.1094-0.91797 2.0039-2.0273 2.0039-1.1133 0-2.0156-0.89453-2.0312-2.0039z"/>
 <path d="m33.855 51.242c1.0664-1.293 1.4414-3.0234 1-4.6406-0.44141-1.6172-1.6445-2.918-3.2227-3.4844-1.5781-0.56641-3.332-0.32813-4.7031 0.63672-1.3711 0.96484-2.1836 2.5391-2.1836 4.2148 0.007812 1.1992 0.43359 2.3594 1.207 3.2734-1.875 1.293-2.9961 3.4258-3 5.707v1.7969-0.003906c0 0.86328 0.69922 1.5664 1.5625 1.5664s1.5664-0.70312 1.5664-1.5664v-1.793c-0.003906-1.0156 0.39844-1.9922 1.1172-2.7109 0.71484-0.71484 1.6914-1.1211 2.7031-1.1211 1.0156 0 1.9922 0.40625 2.707 1.1211 0.71875 0.71875 1.1211 1.6953 1.1172 2.7109v1.7969-0.003906c0 0.86328 0.69922 1.5664 1.5625 1.5664 0.86719 0 1.5664-0.70312 1.5664-1.5664v-1.793c-0.003907-2.2812-1.125-4.4141-3-5.707zm-5.9805-3.2734c0.015625-1.1094 0.91797-2 2.0273-2s2.0156 0.89062 2.0273 2c-0.011719 1.1094-0.91797 2-2.0273 2s-2.0117-0.89062-2.0273-2z"/>
 <path d="m93.75 27.883c-0.28125-10.621-18.984-12.758-24.309-4.1758v-0.003906c-5.625-4.3047-12.488-6.6836-19.57-6.7773-7.082-0.09375-14.008 2.1016-19.742 6.2578-2.7812-3.2305-6.8828-5.0195-11.141-4.8555-15.32 0.17188-17.754 16.688-2.1836 18.957l1.7461 0.96094c-8.5 20.98 8.2031 45.266 30.883 44.824 10.789 0.023438 20.906-5.2266 27.098-14.066 6.1914-8.8359 7.6719-20.141 3.9688-30.273l2.6289-1.4453c6.1719-0.76953 10.621-4.6758 10.621-9.4023zm-12.809-6.4258c11.582 0.20312 13.426 11.191 1.5195 12.77-0.082032-0.23828-6.4453 3.4609-6.6758 3.5312v-3.4805c-0.035156-0.56641-0.34375-1.0859-0.83203-1.3828-7.8789-4.3203-1.793-11.672 5.9883-11.441zm-71.633 6.4258c0.52734-8.4766 18.836-8.4727 19.359 0-0.19531 2.2305-1.6172 4.1641-3.6914 5.0117-0.32031 0.20312-0.57422 0.5-0.72656 0.85156-0.11719 1.332-0.15234 2.6719-0.10547 4.0078l-6.0781-3.3438c-4.6406-0.64453-8.7969-3.0078-8.7578-6.5273zm70.07 22.113c-1.6406 39.723-58.254 39.723-59.895 0 0.003906-3.4922 0.625-6.9531 1.832-10.227 0.625 0.24219 3.7695 2.3008 4.3906 2.1953v-0.003906c0.86328-0.003907 1.5586-0.70313 1.5664-1.5625v-5.2383c2.6641-1.4766 4.3789-4.2305 4.5234-7.2773 0-0.62891-0.085937-1.2578-0.25-1.8672 5.1484-3.8867 11.43-5.9844 17.883-5.9648 6.8516 0.007813 13.488 2.3672 18.809 6.6797-0.53906 3.3281 1.2227 6.3867 4.4219 8.4297v5.2383c0.003906 0.85937 0.70312 1.5586 1.5625 1.5625 0.73047 0.046874 2.8633-1.4453 3.5-1.7031h0.003906c1.0898 3.1328 1.6484 6.4219 1.6523 9.7383z"/>
 <path d="m75.383 29.402c0.85547-0.015625 1.5391-0.71484 1.5391-1.5664 0-0.85547-0.68359-1.5547-1.5391-1.5703-0.85547 0.015625-1.5391 0.71484-1.5391 1.5703 0 0.85156 0.68359 1.5508 1.5391 1.5664z"/>
 <path d="m80.941 29.391c0.85547-0.015625 1.5391-0.71484 1.5391-1.5703 0-0.85156-0.68359-1.5508-1.5391-1.5664-0.85547 0.015625-1.5391 0.71484-1.5391 1.5703 0 0.85156 0.68359 1.5508 1.5391 1.5664z"/>
 <path d="m86.691 29.41c0.85547-0.015625 1.5391-0.71484 1.5391-1.5703 0-0.85547-0.68359-1.5508-1.5391-1.5703-0.85547 0.019531-1.5391 0.71484-1.5391 1.5703 0 0.85547 0.68359 1.5547 1.5391 1.5703z"/>
 <path d="m24.547 29.402c0.85547-0.015625 1.5391-0.71484 1.5391-1.5664 0-0.85547-0.68359-1.5547-1.5391-1.5703-0.85547 0.015625-1.5391 0.71484-1.5391 1.5703 0 0.85156 0.68359 1.5508 1.5391 1.5664z"/>
 <path d="m18.988 29.391c0.85547-0.015625 1.5391-0.71484 1.5391-1.5703 0-0.85156-0.68359-1.5508-1.5391-1.5664-0.85547 0.015625-1.5391 0.71484-1.5391 1.5703 0 0.85156 0.68359 1.5508 1.5391 1.5664z"/>
 <path d="m13.238 26.27c-0.85156 0.019531-1.5391 0.71484-1.5391 1.5703 0 0.85547 0.6875 1.5547 1.5391 1.5703 0.85547-0.015625 1.5391-0.71484 1.5391-1.5703 0-0.85547-0.68359-1.5508-1.5391-1.5703z"/>
<text x="0.0" y="117.5" font-size="5.0" font-weight="bold" font-family="Arbeit Regular, Helvetica, Arial-Unicode, Arial, Sans-serif" fill="#000000">Created by metami septiana</text><text x="0.0" y="122.5" font-size="5.0" font-weight="bold" font-family="Arbeit Regular, Helvetica, Arial-Unicode, Arial, Sans-serif" fill="#000000">from Noun Project</text></svg>