<svg xmlns="http://www.w3.org/2000/svg" version="1.1" viewBox="-5.0 -10.0 110.0 135.0">
 <path d="m27.25 24.656c5.4062 0 9.8047-4.4062 9.8047-9.8242 0-5.4062-4.3984-9.8086-9.8047-9.8086s-9.8047 4.3984-9.8047 9.8086c0 5.4141 4.3984 9.8242 9.8047 9.8242zm0-16.738c3.8125 0 6.9102 3.1016 6.9102 6.9141 0 3.8203-3.1016 6.9336-6.9102 6.9336-3.8125 0-6.9102-3.1133-6.9102-6.9336 0-3.8125 3.0977-6.9141 6.9102-6.9141zm62.695-2.75c-0.71875-0.34375-1.5859-0.042969-1.9297 0.67578-0.58203 1.207-1.8164 1.9883-3.1562 1.9883h-9.8906v-1.3594c0-0.80078-0.64844-1.4453-1.4453-1.4453-0.80078 0-1.4453 0.64844-1.4453 1.4453v1.3633h-9.332c-1.3359 0-2.582-0.78516-3.1836-2.0039-0.35547-0.71875-1.2227-1.0117-1.9375-0.65625s-1.0117 1.2227-0.65625 1.9375c1.0391 2.1016 3.1602 3.4766 5.4688 3.5938v1.3711h-2.4336c-1.9805 0-3.5898 1.6211-3.5898 3.6133v12.945c0 1.2695 1.0234 2.3047 2.2812 2.3047h3.7383l-0.003906 35.797c0 3.043-2.4766 5.5195-5.5195 5.5195-3.043 0-5.5195-2.4766-5.5195-5.5195v-23.875c0-2.8438-2.3203-5.1562-5.1758-5.1562h-0.95312v-1.6406c0-5.9531-4.6523-11.039-10.598-11.578-0.32422-0.03125-0.65234 0.050781-0.92578 0.23047-1.918 1.2656-4.1602 1.9336-6.4883 1.9336s-4.5742-0.66797-6.4922-1.9336c-0.27344-0.18359-0.59375-0.26562-0.92969-0.23047-5.9414 0.53906-10.598 5.625-10.598 11.578v18.797c0 3.1367 2.5547 5.6914 5.6914 5.6914h0.40234l2.918 30.16c0.24609 2.4297 2.293 4.2578 4.7617 4.2578h8.4883c2.4688 0 4.5156-1.8281 4.7617-4.2656l2.918-30.156h0.40234c3.1367 0 5.6875-2.5547 5.6875-5.6914l-0.003907-14.254h0.95313c1.2578 0 2.2812 1.0156 2.2812 2.2617l0.003906 23.871c0 4.6367 3.7734 8.4102 8.4102 8.4102 4.6406 0 8.4102-3.7734 8.4102-8.4102l0.003906-35.801h3.7188c1.2734 0 2.3047-1.0312 2.3047-2.3047v-12.945c0-1.9922-1.6094-3.6133-3.5898-3.6133h-2.4336v-1.3477h6.75v75.852h-5.3047c-3.2188 0-5.8906 2.3984-6.332 5.5078h-1.125c-0.80078 0-1.4453 0.64844-1.4453 1.4453 0 0.80078 0.64844 1.4453 1.4453 1.4453h2.5078c0.80078 0 1.4453-0.64844 1.4453-1.4453v-0.53516c0-1.9414 1.5703-3.5234 3.5039-3.5234h13.48c1.9336 0 3.5039 1.582 3.5039 3.5234v0.53516c0 0.80078 0.64453 1.4453 1.4453 1.4453h2.5078c0.80078 0 1.4453-0.64844 1.4453-1.4453 0-0.80078-0.64844-1.4453-1.4453-1.4453h-1.125c-0.44141-3.1094-3.1133-5.5078-6.332-5.5078h-5.2852v-75.852h9.8906c2.4414 0 4.7031-1.4258 5.7617-3.6289 0.35547-0.71875 0.050781-1.5859-0.66797-1.9297zm-47.574 49.699c0 1.543-1.2539 2.7969-2.7969 2.7969h-0.26953v-13.234c0-0.80078-0.64844-1.4453-1.4453-1.4453-0.80078 0-1.4453 0.64844-1.4453 1.4453v14.609l-3.0352 31.387c-0.09375 0.92969-0.92188 1.6562-1.8828 1.6562h-2.8008v-30.613c0-0.80078-0.64844-1.4453-1.4453-1.4453-0.80078 0-1.4453 0.64453-1.4453 1.4453v30.617h-2.7969c-0.96094 0-1.7852-0.72656-1.8828-1.6484l-3.0352-31.395v-21.559c0-0.80078-0.64844-1.4453-1.4453-1.4453-0.80078 0-1.4453 0.64844-1.4453 1.4453v20.18h-0.26953c-1.543 0-2.7969-1.2539-2.7969-2.7969l-0.003906-18.797c0-4.3125 3.2539-8.0195 7.4922-8.6406 2.2891 1.3906 4.9141 2.1211 7.6289 2.1211s5.3398-0.73047 7.625-2.1211c4.2383 0.62109 7.4961 4.3281 7.4961 8.6406zm26.082-39.18v12.355h-9.1523v-12.355c0-0.38281 0.32422-0.71875 0.69531-0.71875h2.7812c0.26562 0.3125 0.65625 0.51562 1.0977 0.51562s0.83594-0.20312 1.0977-0.51562h2.7812c0.375 0 0.69922 0.33594 0.69922 0.71875zm-4.5742 1.6406c-0.48047 0-0.92969 0.23828-1.1992 0.64062-0.16797 0.24609-0.41016 0.52344-0.66797 0.81641-0.80078 0.91406-1.7969 2.0508-1.6758 3.6797 0.17187 1.8672 1.6602 3.2227 3.5391 3.2227 1.8828 0 3.3711-1.3555 3.543-3.2422 0.12109-1.6094-0.87891-2.7461-1.6797-3.6602-0.25781-0.29297-0.5-0.57031-0.66406-0.81641-0.26562-0.40234-0.71484-0.64062-1.1953-0.64062zm0 5.4648c-0.18359 0-0.60938-0.058594-0.65625-0.57031-0.023437-0.3125 0.28516-0.73438 0.65625-1.1758 0.37109 0.4375 0.68359 0.85938 0.66016 1.1523-0.054687 0.56641-0.55859 0.59375-0.66016 0.59375zm-26.992 8.9883c-0.97656-0.10938-1.9492 0.078125-2.8008 0.52734-0.85156-0.44531-1.8516-0.64062-2.7969-0.52734-1.5273 0.16797-2.9805 1.1172-3.6211 2.375-0.86719 1.7305-1.1758 4.4375 2.3281 7.5312 1.3125 1.0703 2.3945 1.7148 3.3086 1.9609 0.25 0.082031 0.51562 0.125 0.77734 0.125 0.26562 0 0.52734-0.039063 0.78125-0.125 0.91406-0.24609 1.9961-0.89063 3.3516-1.9961 3.457-3.0586 3.1484-5.7656 2.2773-7.5078-0.63281-1.2422-2.0859-2.1953-3.6055-2.3633zm-0.54297 7.668c-1.3516 1.1055-2.0195 1.3555-2.2422 1.4102-0.003906 0-0.007812 0.003906-0.011718 0.003906-0.003906-0.003906-0.011719-0.003906-0.015625-0.003906-0.22266-0.054687-0.89453-0.30859-2.1992-1.3711-2.5195-2.2305-1.8867-3.4922-1.6211-4.0234 0.19531-0.38281 0.80469-0.74609 1.3633-0.80859 0.070312-0.007812 0.14453-0.011719 0.21484-0.011719 0.47656 0 0.9375 0.17578 1.3008 0.49609 0.54688 0.48047 1.3672 0.48047 1.9141 0 0.41406-0.36719 0.9375-0.54688 1.5195-0.48438 0.55469 0.0625 1.1602 0.42578 1.3516 0.79688 0.26953 0.53906 0.90234 1.8047-1.5742 3.9961z"/>
<text x="0.0" y="117.5" font-size="5.0" font-weight="bold" font-family="Arbeit Regular, Helvetica, Arial-Unicode, Arial, Sans-serif" fill="#000000">Created by KUSNIYAH</text><text x="0.0" y="122.5" font-size="5.0" font-weight="bold" font-family="Arbeit Regular, Helvetica, Arial-Unicode, Arial, Sans-serif" fill="#000000">from Noun Project</text></svg>